<?xml version="1.0" encoding="utf-8"?>
<!-- Generator: Adobe Illustrator 19.0.0, SVG Export Plug-In . SVG Version: 6.00 Build 0)  -->
<svg version="1.1" id="Layer_1" xmlns="http://www.w3.org/2000/svg" xmlns:xlink="http://www.w3.org/1999/xlink" x="0px" y="0px"
	 viewBox="43 -170.9 512 512" style="enable-background:new 43 -170.9 512 512;" xml:space="preserve">
<style type="text/css">
	.st0{fill:#FBB230;}
	.st1{fill:#EB2230;}
	.st2{fill:#FFFFFF;}
</style>
<path d="M439,265.1H159c-49.5,0-90-40.5-90-90v-180c0-49.5,40.5-90,90-90h280c49.5,0,90,40.5,90,90v180
	C529,224.6,488.5,265.1,439,265.1z"/>
<g id="card_x2C__credit_x2C__Mastercard_x2C___bank_x2C__debit_x2C_">
	<g>
		<circle class="st0" cx="374.4" cy="85.1" r="112.3"/>
		<polygon class="st1" points="335.9,88.9 262.1,88.9 262.1,90.7 262.5,95 335.5,95 335.4,96.4 334.7,102 334.6,102.4 263.4,102.4 
			264.2,107.6 264.5,108.5 333.6,108.5 332.5,113 331.6,116 266.4,116 267.1,118.3 268.3,122.1 329.7,122.1 329.2,123.6 
			327.2,128.7 326.8,129.5 271.2,129.5 271.4,130 271.5,130.1 273.1,133.7 273.8,135.1 273.8,135.1 274,135.6 324,135.6 
			322.5,138.5 319.9,143 278.1,143 278.2,143.2 281.2,147.8 282.1,149.1 315.9,149.1 313.8,152.2 310.4,156.4 307,160.5 
			303.2,164.4 299.3,168.2 299,168.4 295.2,171.7 290.9,175 286.6,178.2 282,181.1 277.3,183.8 272.5,186.3 267.5,188.5 
			262.5,190.5 257.3,192.4 251.9,193.8 246.5,195.1 241,196.1 235.3,196.9 229.7,197.2 223.9,197.4 218.1,197.2 212.4,196.9 
			206.7,196.1 201.2,195.1 195.8,193.8 190.4,192.4 185.2,190.5 180,188.5 175.1,186.3 170.3,183.8 165.6,181.1 161,178.2 
			156.5,175 152.3,171.7 148.3,168.2 144.3,164.4 140.6,160.5 137.1,156.4 133.7,152.2 130.5,147.8 127.7,143.2 124.9,138.5 
			122.5,133.7 120.2,128.7 118.2,123.6 116.4,118.3 114.9,113 113.7,107.6 112.6,102 111.9,96.4 111.5,90.7 111.3,84.9 111.5,79.1 
			111.9,73.4 112.6,67.8 113.7,62.3 114.9,56.9 116.4,51.6 118.2,46.3 120.2,41.3 122.5,36.3 124.9,31.5 127.7,26.8 130.5,22.2 
			133.7,17.9 137.1,13.6 140.6,9.5 144.3,5.6 148.3,2 152.3,-1.5 156.5,-5 161,-8 165.6,-11 170.3,-13.7 175.1,-16.1 180,-18.4 
			185.2,-20.4 190.4,-22.1 195.8,-23.7 201.2,-25 206.7,-25.9 212.4,-26.6 218.1,-27.1 223.9,-27.2 229.7,-27.1 235.3,-26.6 
			241,-25.9 246.5,-25 251.9,-23.7 257.3,-22.1 262.5,-20.4 267.5,-18.4 272.5,-16.1 277.3,-13.7 282,-11 286.6,-8 290.9,-5 
			295.2,-1.5 299,1.7 299.3,2 303.2,5.6 307,9.5 307.1,9.7 290.9,9.7 287.7,13.6 285.9,15.9 312.2,15.9 313.8,17.9 316.8,22.2 
			317.5,23.3 280.5,23.3 280.3,23.7 280.3,23.7 278.2,26.8 276.8,29.4 321.3,29.4 322.5,31.5 324.9,36.3 325.2,36.8 272.9,36.8 
			270.8,41.3 270.2,42.9 327.8,42.9 329.2,46.3 330.6,50.4 267.5,50.4 267.1,51.6 266,55.3 266,55.3 265.7,56.4 332.3,56.4 
			332.5,56.9 333.8,62.3 334,64 264,64 263.3,67.8 263.2,68.7 263.2,68.8 263,70 335,70 335.4,73.4 335.9,79.1 336,84.9 		"/>
	</g>
	<g>
		<path id="dot-yellow" class="st0" d="M299.6,102.8c-2.3,0-4.4,2-4.4,4.3c0,2.5,2,4.5,4.4,4.5c2.5,0,4.5-2,4.5-4.5
			C304,104.8,302.1,102.8,299.6,102.8z M299.6,101.9c-2.9,0-5.3,2.5-5.3,5.3c0,2.9,2.3,5.3,5.3,5.3c2.9,0,5.3-2.3,5.3-5.3
			C304.9,104.4,302.5,101.9,299.6,101.9z"/>
		<path id="dot-white" class="st2" d="M298.4,57.7c2.9,0,5.3,2.4,5.3,5.3c0,2.9-2.3,5.3-5.3,5.3c-2.9,0-5.3-2.3-5.3-5.3
			C293.1,60,295.5,57.7,298.4,57.7L298.4,57.7z M298.4,58.6c2.5,0,4.5,2,4.5,4.4c0,2.5-2,4.5-4.5,4.5c-2.5,0-4.5-2-4.5-4.5
			C293.9,60.6,295.9,58.6,298.4,58.6L298.4,58.6z"/>
	</g>
	<g id="text">
		<path id="d" class="st2" d="M460.6,59.5l-2.9,15.3c-28.8-21.6-40,35.3-17.6,35.3c3.5,0,7.1-1.8,9.4-2.9l1.2,2.9h11.8l9.4-50.6
			H460.6z M444.2,98.9c-3.5,0-7.1-4.1-5.3-10c2.3-8.8,10-12.4,13.5-7.6C456,86.8,451.6,98.9,444.2,98.9z"/>
		<path id="r_1_" class="st2" d="M402.3,110.1l7.6-40h9.5l1.2,4.1c1.8-1.8,4.7-4.1,10.6-4.1l-2.9,10.6c-2.6,0-6.6-0.5-9.9,7.3
			c-2.5,5.9-3.6,15.6-4.9,22.1H402.3z"/>
		<path id="a_1_" class="st2" d="M372.9,71.3l-1.8,8.8c2.9,0,10-1.2,13.5-1.2c3.5,0,7.7-0.6,6.5,5.3c-2.9,0-22.4-2.9-25.3,14.1
			c-1.2,8.2,5.9,12.3,11.2,12.3c5.3,0,7.1-1.2,8.8-2.3l1.2,2.3h10l4.1-21.8C405.6,69.2,386.6,68.9,372.9,71.3z M389.3,96.5
			c-0.6,3.5-5.9,5.9-9.4,4.7c-4.1-1.2-2.9-5.3,0.6-7.6c3.5-2.3,7.7-1.2,9.4-1.2L389.3,96.5z"/>
		<path id="c" class="st2" d="M364.4,74.8c-2.7-1.6-4.4-1.6-7.8-1.6c-3.3,0-11.1,3.3-12.1,12.1c-1.6,11.1,5.5,16,16,12.7l2.8,9.4
			c-17.9,8.9-34.9-4.9-29.3-26.6c4.6-16.3,26.2-26.2,37.1-12.7L364.4,74.8z"/>
		<path id="r" class="st2" d="M305.2,110.7l0.6-4.1l7.1-35.9h9.4l1.2,4.1c1.8-1.8,4.7-4.1,10.6-4.1l-2.9,10.6
			c-2.2,0-6.9-0.5-10.5,8.9c-2,5.4-3.2,14.6-4.2,20.5H305.2z"/>
		<path id="e" class="st2" d="M305.2,92.4c1.2-6.5,4.1-22.3-14.8-22.3c-17.6,0-20,17.6-20,20c-0.6,2.4-0.6,20,18.2,20
			c4.7,0,11.3-0.6,14.2-1.8l1.8-8.2c-1.8,0.6-7.8,1.2-12.5,1.2c-4.1,0-11.2,0-10-8.8H305.2z M295.7,84.8h-13.5
			C284.4,76.2,297.2,74.1,295.7,84.8z"/>
		<path id="t" class="st2" d="M258.1,60.1h10.6l-2.3,10.6h5.9l-1.8,8.2h-5.3l-2.9,15.9c-0.6,2.9,0,5.9,5.9,4.7l-1.2,8.8
			c-6.4,4.8-19.1,1.3-17.1-10.6L258.1,60.1z"/>
		<path id="s" class="st2" d="M248.3,80.3h-0.5h-0.5l-0.5-0.1l-0.5-0.1h-0.5l-0.5-0.1c-2.1-0.2-3.9-0.4-6-0.2
			c-5.4,0.5-7.8,3.9-3.2,6.5c3.6,2.1,6.5,1.8,8.9,4.1c5.3,4.9,2.6,14.5-3.3,18.1l-1.1,0.5l-1.2,0.5l-1.3,0.3l-1.2,0.4
			c-5.7,0.9-13.3,0.7-18.8-1.2l1.5-7.9c4.5,0.9,11.8,2.9,15.2,0.6c3.9-2.6,0.4-5.7-2.5-6.9l-1.4-0.5l-1.4-0.6
			c-11.2-5.1-8.6-18.6,2-21.4c4.2-0.9,8.5-0.9,12.8-0.6h0.8c1.1,0.1,2,0.2,2.9,0.5h0.5l0.4,0.1h0.4l0.2,0.1h0.4L248.3,80.3
			L248.3,80.3z"/>
		<path id="a" class="st2" d="M189.2,71.3l-1.8,8.8c2.9,0,10-1.2,13.5-1.2c3.5,0,8.2-0.6,6.5,5.3c-2.9,0-22.3-2.9-25.3,14.1
			c-1.6,11.3,11.8,15.4,20,10l1.2,2.3h10l4.1-21.8C221.8,69.2,202.9,68.9,189.2,71.3z M205.1,96.5c-1.2,3.5-5.9,5.9-9.4,4.7
			c-4.1-1.2-2.9-5.3,0.6-7.6c3.5-2.3,7.7-1.2,9.4-1.2L205.1,96.5z"/>
		<polygon id="m" class="st2" points="176.9,110.1 186.3,61.8 168,61.8 155,91.3 152.7,61.8 135.6,61.8 126.2,110.1 136.8,110.1 
			143.9,75.4 146.8,110.1 156.8,110.1 172.1,76 165.6,110.1 		"/>
	</g>
</g>
</svg>
