<?xml version="1.0" encoding="utf-8"?>
<!-- Generator: Adobe Illustrator 19.0.0, SVG Export Plug-In . SVG Version: 6.00 Build 0)  -->
<svg version="1.1" id="La363-visa_x2C__Credit_cardyer_1"
	 xmlns="http://www.w3.org/2000/svg" xmlns:xlink="http://www.w3.org/1999/xlink" x="0px" y="0px" viewBox="43 -170.9 512 512"
	 style="enable-background:new 43 -170.9 512 512;" xml:space="preserve">
<style type="text/css">
	.st0{fill:#FFFFFF;}
</style>
<path id="bg" d="M439,265.1H159c-49.5,0-90-40.5-90-90v-180c0-49.5,40.5-90,90-90h280c49.5,0,90,40.5,90,90v180
	C529,224.6,488.5,265.1,439,265.1z"/>
<g id="text">
	<path id="a" class="st0" d="M471.2,23.3h-24.8c-7.7,0-13.5,2.2-16.8,10.3l-47.7,113.8h33.7c0,0,5.5-15.3,6.7-18.6h41.2
		c1,4.4,3.8,18.6,3.8,18.6h29.7L471.2,23.3z M431.6,103.4c2.6-7.1,12.8-34.7,12.8-34.7c-0.2,0.2,2.6-7.3,4.2-11.9l2.2,10.7
		c0,0,6.1,29.7,7.4,35.9H431.6L431.6,103.4z"/>
	<path id="s" class="st0" d="M357.4,73c-11.3-5.7-18.1-9.5-18.1-15.3c0.2-5.3,5.8-10.7,18.4-10.7c10.5-0.2,18.1,2.2,23.9,4.7
		l2.9,1.4l4.4-26.8c-6.3-2.5-16.4-5.3-28.8-5.3c-31.7,0-54,16.9-54.1,41c-0.2,17.8,16,27.7,28.1,33.7c12.4,6.1,16.6,10.1,16.6,15.4
		c-0.2,8.3-10.1,12.1-19.2,12.1c-12.8,0-19.6-2-30.1-6.6l-4.2-2l-4.5,27.9c7.5,3.4,21.4,6.5,35.8,6.6c33.7,0.1,55.7-16.6,55.9-42.3
		C384.5,92.7,375.8,81.9,357.4,73z"/>
	<polygon id="i" class="st0" points="260.6,23.3 240.5,147.4 272.6,147.4 292.7,23.3 	"/>
	<path id="v" class="st0" d="M213.7,23.3L182.3,108l-3.4-17.2l-11.2-57c-1.8-7.9-7.5-10.1-14.5-10.5h-51.7l-0.6,2.5
		c12.6,3.2,23.9,7.8,33.7,13.7l28.6,107.8h33.9l50.5-124H213.7L213.7,23.3z"/>
</g>
</svg>
